<svg width="280" height="60" viewBox="0 0 280 60" fill="none" xmlns="http://www.w3.org/2000/svg">
<rect width="280" height="60" rx="30" fill="#272525"/>
<path d="M67.9936 24.8V36H66.4256V26.192H59.9296V36H58.3456V24.8H67.9936ZM78.8942 31.808C78.8942 31.9253 78.8835 32.08 78.8622 32.272H71.9822C72.0782 33.0187 72.4035 33.6213 72.9582 34.08C73.5235 34.528 74.2222 34.752 75.0542 34.752C76.0675 34.752 76.8835 34.4107 77.5022 33.728L78.3502 34.72C77.9662 35.168 77.4862 35.5093 76.9102 35.744C76.3449 35.9787 75.7102 36.096 75.0062 36.096C74.1102 36.096 73.3155 35.9147 72.6222 35.552C71.9289 35.1787 71.3902 34.6613 71.0062 34C70.6329 33.3387 70.4462 32.592 70.4462 31.76C70.4462 30.9387 70.6275 30.1973 70.9902 29.536C71.3635 28.8747 71.8702 28.3627 72.5102 28C73.1609 27.6267 73.8915 27.44 74.7022 27.44C75.5129 27.44 76.2329 27.6267 76.8622 28C77.5022 28.3627 77.9982 28.8747 78.3502 29.536C78.7129 30.1973 78.8942 30.9547 78.8942 31.808ZM74.7022 28.736C73.9662 28.736 73.3475 28.96 72.8462 29.408C72.3555 29.856 72.0675 30.4427 71.9822 31.168H77.4222C77.3369 30.4533 77.0435 29.872 76.5422 29.424C76.0515 28.9653 75.4382 28.736 74.7022 28.736ZM85.7731 27.44C86.5944 27.44 87.3304 27.6213 87.9811 27.984C88.6317 28.3467 89.1384 28.8533 89.5011 29.504C89.8744 30.1547 90.0611 30.9067 90.0611 31.76C90.0611 32.6133 89.8744 33.3707 89.5011 34.032C89.1384 34.6827 88.6317 35.1893 87.9811 35.552C87.3304 35.9147 86.5944 36.096 85.7731 36.096C85.1651 36.096 84.6051 35.9787 84.0931 35.744C83.5917 35.5093 83.1651 35.168 82.8131 34.72V39.104H81.2771V27.52H82.7491V28.864C83.0904 28.3947 83.5224 28.0427 84.0451 27.808C84.5677 27.5627 85.1437 27.44 85.7731 27.44ZM85.6451 34.752C86.1891 34.752 86.6744 34.6293 87.1011 34.384C87.5384 34.128 87.8797 33.776 88.1251 33.328C88.3811 32.8693 88.5091 32.3467 88.5091 31.76C88.5091 31.1733 88.3811 30.656 88.1251 30.208C87.8797 29.7493 87.5384 29.3973 87.1011 29.152C86.6744 28.9067 86.1891 28.784 85.6451 28.784C85.1117 28.784 84.6264 28.912 84.1891 29.168C83.7624 29.4133 83.4211 29.76 83.1651 30.208C82.9197 30.656 82.7971 31.1733 82.7971 31.76C82.7971 32.3467 82.9197 32.8693 83.1651 33.328C83.4104 33.776 83.7517 34.128 84.1891 34.384C84.6264 34.6293 85.1117 34.752 85.6451 34.752ZM99.9567 31.808C99.9567 31.9253 99.946 32.08 99.9247 32.272H93.0447C93.1407 33.0187 93.466 33.6213 94.0207 34.08C94.586 34.528 95.2847 34.752 96.1167 34.752C97.13 34.752 97.946 34.4107 98.5647 33.728L99.4127 34.72C99.0287 35.168 98.5487 35.5093 97.9727 35.744C97.4074 35.9787 96.7727 36.096 96.0687 36.096C95.1727 36.096 94.378 35.9147 93.6847 35.552C92.9914 35.1787 92.4527 34.6613 92.0687 34C91.6954 33.3387 91.5087 32.592 91.5087 31.76C91.5087 30.9387 91.69 30.1973 92.0527 29.536C92.426 28.8747 92.9327 28.3627 93.5727 28C94.2234 27.6267 94.954 27.44 95.7647 27.44C96.5754 27.44 97.2954 27.6267 97.9247 28C98.5647 28.3627 99.0607 28.8747 99.4127 29.536C99.7754 30.1973 99.9567 30.9547 99.9567 31.808ZM95.7647 28.736C95.0287 28.736 94.41 28.96 93.9087 29.408C93.418 29.856 93.13 30.4427 93.0447 31.168H98.4847C98.3994 30.4533 98.106 29.872 97.6047 29.424C97.114 28.9653 96.5007 28.736 95.7647 28.736ZM102.34 27.52H103.876V33.696L109.076 27.52H110.468V36H108.932V29.824L103.748 36H102.34V27.52ZM106.308 26.416C105.518 26.416 104.905 26.2293 104.468 25.856C104.03 25.472 103.806 24.9227 103.796 24.208H104.836C104.846 24.6027 104.98 24.9227 105.236 25.168C105.502 25.4027 105.854 25.52 106.292 25.52C106.729 25.52 107.081 25.4027 107.348 25.168C107.614 24.9227 107.753 24.6027 107.764 24.208H108.836C108.825 24.9227 108.596 25.472 108.148 25.856C107.7 26.2293 107.086 26.416 106.308 26.416ZM119.769 28.864H116.665V36H115.129V28.864H112.025V27.52H119.769V28.864ZM121.34 27.52H122.876V33.696L128.076 27.52H129.468V36H127.932V29.824L122.748 36H121.34V27.52ZM140.042 32.416H138.282V36H136.746V27.52H138.282V31.104H140.074L142.826 27.52H144.474L141.258 31.6L144.698 36H142.89L140.042 32.416ZM150.605 27.52H152.141V31.12H156.973V27.52H158.509V36H156.973V32.448H152.141V36H150.605V27.52ZM164.52 27.44C165.693 27.44 166.589 27.728 167.208 28.304C167.837 28.88 168.152 29.7387 168.152 30.88V36H166.696V34.88C166.44 35.2747 166.072 35.5787 165.592 35.792C165.122 35.9947 164.562 36.096 163.912 36.096C162.962 36.096 162.2 35.8667 161.624 35.408C161.058 34.9493 160.776 34.3467 160.776 33.6C160.776 32.8533 161.048 32.256 161.592 31.808C162.136 31.3493 163 31.12 164.184 31.12H166.616V30.816C166.616 30.1547 166.424 29.648 166.04 29.296C165.656 28.944 165.09 28.768 164.344 28.768C163.842 28.768 163.352 28.8533 162.872 29.024C162.392 29.184 161.986 29.4027 161.656 29.68L161.016 28.528C161.453 28.176 161.976 27.9093 162.584 27.728C163.192 27.536 163.837 27.44 164.52 27.44ZM164.168 34.912C164.754 34.912 165.261 34.784 165.688 34.528C166.114 34.2613 166.424 33.888 166.616 33.408V32.224H164.248C162.946 32.224 162.296 32.6613 162.296 33.536C162.296 33.9627 162.461 34.2987 162.792 34.544C163.122 34.7893 163.581 34.912 164.168 34.912ZM175.238 27.808C176.027 27.808 176.731 27.984 177.35 28.336C177.968 28.688 178.448 29.1787 178.79 29.808C179.142 30.4267 179.318 31.136 179.318 31.936C179.318 32.7573 179.131 33.488 178.758 34.128C178.395 34.7573 177.878 35.248 177.206 35.6C176.544 35.952 175.787 36.128 174.934 36.128C173.494 36.128 172.379 35.6373 171.59 34.656C170.811 33.664 170.422 32.272 170.422 30.48C170.422 28.7413 170.779 27.3813 171.494 26.4C172.208 25.408 173.302 24.752 174.774 24.432L178.646 23.568L178.87 24.976L175.302 25.744C174.192 25.9893 173.366 26.4053 172.822 26.992C172.278 27.5787 171.968 28.4213 171.894 29.52C172.256 28.976 172.726 28.5547 173.302 28.256C173.878 27.9573 174.523 27.808 175.238 27.808ZM174.966 34.848C175.51 34.848 175.99 34.7253 176.406 34.48C176.832 34.2347 177.163 33.8987 177.398 33.472C177.632 33.0347 177.75 32.5387 177.75 31.984C177.75 31.1413 177.494 30.464 176.982 29.952C176.47 29.44 175.798 29.184 174.966 29.184C174.134 29.184 173.456 29.44 172.934 29.952C172.422 30.464 172.166 31.1413 172.166 31.984C172.166 32.5387 172.283 33.0347 172.518 33.472C172.763 33.8987 173.099 34.2347 173.526 34.48C173.952 34.7253 174.432 34.848 174.966 34.848ZM185.143 36.096C184.301 36.096 183.543 35.9093 182.871 35.536C182.199 35.1627 181.671 34.6507 181.287 34C180.914 33.3387 180.727 32.592 180.727 31.76C180.727 30.928 180.914 30.1867 181.287 29.536C181.671 28.8747 182.199 28.3627 182.871 28C183.543 27.6267 184.301 27.44 185.143 27.44C185.986 27.44 186.738 27.6267 187.399 28C188.071 28.3627 188.594 28.8747 188.967 29.536C189.351 30.1867 189.543 30.928 189.543 31.76C189.543 32.592 189.351 33.3387 188.967 34C188.594 34.6507 188.071 35.1627 187.399 35.536C186.738 35.9093 185.986 36.096 185.143 36.096ZM185.143 34.752C185.687 34.752 186.173 34.6293 186.599 34.384C187.037 34.128 187.378 33.776 187.623 33.328C187.869 32.8693 187.991 32.3467 187.991 31.76C187.991 31.1733 187.869 30.656 187.623 30.208C187.378 29.7493 187.037 29.3973 186.599 29.152C186.173 28.9067 185.687 28.784 185.143 28.784C184.599 28.784 184.109 28.9067 183.671 29.152C183.245 29.3973 182.903 29.7493 182.647 30.208C182.402 30.656 182.279 31.1733 182.279 31.76C182.279 32.3467 182.402 32.8693 182.647 33.328C182.903 33.776 183.245 34.128 183.671 34.384C184.109 34.6293 184.599 34.752 185.143 34.752ZM196.257 27.44C197.079 27.44 197.815 27.6213 198.465 27.984C199.116 28.3467 199.623 28.8533 199.985 29.504C200.359 30.1547 200.545 30.9067 200.545 31.76C200.545 32.6133 200.359 33.3707 199.985 34.032C199.623 34.6827 199.116 35.1893 198.465 35.552C197.815 35.9147 197.079 36.096 196.257 36.096C195.649 36.096 195.089 35.9787 194.577 35.744C194.076 35.5093 193.649 35.168 193.297 34.72V39.104H191.761V27.52H193.233V28.864C193.575 28.3947 194.007 28.0427 194.529 27.808C195.052 27.5627 195.628 27.44 196.257 27.44ZM196.129 34.752C196.673 34.752 197.159 34.6293 197.585 34.384C198.023 34.128 198.364 33.776 198.609 33.328C198.865 32.8693 198.993 32.3467 198.993 31.76C198.993 31.1733 198.865 30.656 198.609 30.208C198.364 29.7493 198.023 29.3973 197.585 29.152C197.159 28.9067 196.673 28.784 196.129 28.784C195.596 28.784 195.111 28.912 194.673 29.168C194.247 29.4133 193.905 29.76 193.649 30.208C193.404 30.656 193.281 31.1733 193.281 31.76C193.281 32.3467 193.404 32.8693 193.649 33.328C193.895 33.776 194.236 34.128 194.673 34.384C195.111 34.6293 195.596 34.752 196.129 34.752ZM205.723 27.44C206.896 27.44 207.792 27.728 208.411 28.304C209.04 28.88 209.355 29.7387 209.355 30.88V36H207.899V34.88C207.643 35.2747 207.275 35.5787 206.795 35.792C206.326 35.9947 205.766 36.096 205.115 36.096C204.166 36.096 203.403 35.8667 202.827 35.408C202.262 34.9493 201.979 34.3467 201.979 33.6C201.979 32.8533 202.251 32.256 202.795 31.808C203.339 31.3493 204.203 31.12 205.387 31.12H207.819V30.816C207.819 30.1547 207.627 29.648 207.243 29.296C206.859 28.944 206.294 28.768 205.547 28.768C205.046 28.768 204.555 28.8533 204.075 29.024C203.595 29.184 203.19 29.4027 202.859 29.68L202.219 28.528C202.656 28.176 203.179 27.9093 203.787 27.728C204.395 27.536 205.04 27.44 205.723 27.44ZM205.371 34.912C205.958 34.912 206.464 34.784 206.891 34.528C207.318 34.2613 207.627 33.888 207.819 33.408V32.224H205.451C204.15 32.224 203.499 32.6613 203.499 33.536C203.499 33.9627 203.664 34.2987 203.995 34.544C204.326 34.7893 204.784 34.912 205.371 34.912ZM221.897 27.52V36H220.505V29.808L217.337 35.04H216.665L213.529 29.792V36H212.121V27.52H213.705L217.033 33.248L220.457 27.52H221.897Z" fill="#FAFAFA"/>
</svg>
