<svg width="111" height="14" viewBox="0 0 111 14" fill="none" xmlns="http://www.w3.org/2000/svg">
<path d="M6.877 12.128C5.757 12.128 4.74367 11.8827 3.837 11.392C2.941 10.8907 2.237 10.208 1.725 9.344C1.213 8.46933 0.957 7.488 0.957 6.4C0.957 5.312 1.213 4.336 1.725 3.472C2.237 2.59733 2.94633 1.91467 3.853 1.424C4.75967 0.922667 5.773 0.672 6.893 0.672C7.76767 0.672 8.56767 0.821333 9.293 1.12C10.0183 1.408 10.637 1.84 11.149 2.416L10.109 3.424C9.26633 2.53867 8.21567 2.096 6.957 2.096C6.125 2.096 5.373 2.28267 4.701 2.656C4.029 3.02933 3.501 3.54667 3.117 4.208C2.74367 4.85867 2.557 5.58933 2.557 6.4C2.557 7.21067 2.74367 7.94667 3.117 8.608C3.501 9.25867 4.029 9.77067 4.701 10.144C5.373 10.5173 6.125 10.704 6.957 10.704C8.205 10.704 9.25567 10.256 10.109 9.36L11.149 10.368C10.637 10.944 10.013 11.3813 9.277 11.68C8.55167 11.9787 7.75167 12.128 6.877 12.128ZM16.37 12.096C15.5273 12.096 14.77 11.9093 14.098 11.536C13.426 11.1627 12.898 10.6507 12.514 10C12.1407 9.33867 11.954 8.592 11.954 7.76C11.954 6.928 12.1407 6.18667 12.514 5.536C12.898 4.87467 13.426 4.36267 14.098 4C14.77 3.62667 15.5273 3.44 16.37 3.44C17.2127 3.44 17.9647 3.62667 18.626 4C19.298 4.36267 19.8207 4.87467 20.194 5.536C20.578 6.18667 20.77 6.928 20.77 7.76C20.77 8.592 20.578 9.33867 20.194 10C19.8207 10.6507 19.298 11.1627 18.626 11.536C17.9647 11.9093 17.2127 12.096 16.37 12.096ZM16.37 10.752C16.914 10.752 17.3993 10.6293 17.826 10.384C18.2633 10.128 18.6047 9.776 18.85 9.328C19.0953 8.86933 19.218 8.34667 19.218 7.76C19.218 7.17333 19.0953 6.656 18.85 6.208C18.6047 5.74933 18.2633 5.39733 17.826 5.152C17.3993 4.90667 16.914 4.784 16.37 4.784C15.826 4.784 15.3353 4.90667 14.898 5.152C14.4713 5.39733 14.13 5.74933 13.874 6.208C13.6287 6.656 13.506 7.17333 13.506 7.76C13.506 8.34667 13.6287 8.86933 13.874 9.328C14.13 9.776 14.4713 10.128 14.898 10.384C15.3353 10.6293 15.826 10.752 16.37 10.752ZM27.4863 7.584C28.0516 7.73333 28.4889 7.97333 28.7983 8.304C29.1076 8.63467 29.2623 9.04533 29.2623 9.536C29.2623 10.0373 29.0916 10.4853 28.7503 10.88C28.4089 11.264 27.9343 11.568 27.3263 11.792C26.7289 12.0053 26.0569 12.112 25.3103 12.112C24.6809 12.112 24.0623 12.032 23.4543 11.872C22.8569 11.7013 22.3236 11.4613 21.8543 11.152L22.3183 9.984C22.7236 10.24 23.1876 10.4427 23.7103 10.592C24.2329 10.7307 24.7609 10.8 25.2943 10.8C26.0196 10.8 26.5956 10.6773 27.0223 10.432C27.4596 10.176 27.6783 9.83467 27.6783 9.408C27.6783 9.01333 27.5023 8.70933 27.1503 8.496C26.8089 8.28267 26.3236 8.176 25.6943 8.176H24.1423V7.072H25.5823C26.1583 7.072 26.6116 6.97067 26.9423 6.768C27.2729 6.56533 27.4383 6.288 27.4383 5.936C27.4383 5.552 27.2409 5.25333 26.8463 5.04C26.4623 4.82667 25.9396 4.72 25.2783 4.72C24.4356 4.72 23.5449 4.93867 22.6063 5.376L22.1903 4.192C23.2249 3.66933 24.3076 3.408 25.4383 3.408C26.1209 3.408 26.7343 3.504 27.2783 3.696C27.8223 3.888 28.2489 4.16 28.5583 4.512C28.8676 4.864 29.0223 5.264 29.0223 5.712C29.0223 6.128 28.8836 6.50133 28.6063 6.832C28.3289 7.16267 27.9556 7.41333 27.4863 7.584ZM40.2214 10.656V13.968H38.7814V12H31.6934V13.968H30.2374V10.656H30.6854C31.2294 10.624 31.6027 10.24 31.8054 9.504C32.008 8.768 32.1467 7.728 32.2214 6.384L32.3494 3.52H38.9254V10.656H40.2214ZM33.6294 6.496C33.5867 7.56267 33.496 8.448 33.3574 9.152C33.2294 9.84533 32.9894 10.3467 32.6374 10.656H37.3894V4.864H33.7094L33.6294 6.496ZM45.2464 3.44C46.4197 3.44 47.3157 3.728 47.9344 4.304C48.5637 4.88 48.8784 5.73867 48.8784 6.88V12H47.4224V10.88C47.1664 11.2747 46.7984 11.5787 46.3184 11.792C45.849 11.9947 45.289 12.096 44.6384 12.096C43.689 12.096 42.9264 11.8667 42.3504 11.408C41.785 10.9493 41.5024 10.3467 41.5024 9.6C41.5024 8.85333 41.7744 8.256 42.3184 7.808C42.8624 7.34933 43.7264 7.12 44.9104 7.12H47.3424V6.816C47.3424 6.15467 47.1504 5.648 46.7664 5.296C46.3824 4.944 45.817 4.768 45.0704 4.768C44.569 4.768 44.0784 4.85333 43.5984 5.024C43.1184 5.184 42.713 5.40267 42.3824 5.68L41.7424 4.528C42.1797 4.176 42.7024 3.90933 43.3104 3.728C43.9184 3.536 44.5637 3.44 45.2464 3.44ZM44.8944 10.912C45.481 10.912 45.9877 10.784 46.4144 10.528C46.841 10.2613 47.1504 9.888 47.3424 9.408V8.224H44.9744C43.673 8.224 43.0224 8.66133 43.0224 9.536C43.0224 9.96267 43.1877 10.2987 43.5184 10.544C43.849 10.7893 44.3077 10.912 44.8944 10.912ZM57.9643 4.864H54.8602V12H53.3243V4.864H50.2203V3.52H57.9643V4.864ZM63.4549 6.4C64.5322 6.41067 65.3535 6.656 65.9189 7.136C66.4842 7.616 66.7669 8.29333 66.7669 9.168C66.7669 10.0853 66.4575 10.7947 65.8389 11.296C65.2309 11.7867 64.3562 12.0267 63.2149 12.016L59.5349 12V3.52H61.0709V6.384L63.4549 6.4ZM63.0869 10.848C63.7802 10.8587 64.3029 10.72 64.6549 10.432C65.0175 10.144 65.1989 9.71733 65.1989 9.152C65.1989 8.59733 65.0229 8.192 64.6709 7.936C64.3295 7.68 63.8015 7.54667 63.0869 7.536L61.0709 7.504V10.832L63.0869 10.848ZM76.7309 12.096C75.8669 12.096 75.0935 11.9093 74.4109 11.536C73.7389 11.1627 73.2109 10.6507 72.8269 10C72.4429 9.33867 72.2509 8.592 72.2509 7.76C72.2509 6.928 72.4429 6.18667 72.8269 5.536C73.2109 4.87467 73.7389 4.36267 74.4109 4C75.0935 3.62667 75.8669 3.44 76.7309 3.44C77.4989 3.44 78.1815 3.59467 78.7789 3.904C79.3869 4.21333 79.8562 4.66133 80.1869 5.248L79.0189 6C78.7522 5.59467 78.4215 5.29067 78.0269 5.088C77.6322 4.88533 77.1949 4.784 76.7149 4.784C76.1602 4.784 75.6589 4.90667 75.2109 5.152C74.7735 5.39733 74.4269 5.74933 74.1709 6.208C73.9255 6.656 73.8029 7.17333 73.8029 7.76C73.8029 8.35733 73.9255 8.88533 74.1709 9.344C74.4269 9.792 74.7735 10.1387 75.2109 10.384C75.6589 10.6293 76.1602 10.752 76.7149 10.752C77.1949 10.752 77.6322 10.6507 78.0269 10.448C78.4215 10.2453 78.7522 9.94133 79.0189 9.536L80.1869 10.272C79.8562 10.8587 79.3869 11.312 78.7789 11.632C78.1815 11.9413 77.4989 12.096 76.7309 12.096ZM87.9515 7.6C89.0502 7.87733 89.5995 8.56533 89.5995 9.664C89.5995 10.4107 89.3168 10.9867 88.7515 11.392C88.1968 11.7973 87.3648 12 86.2555 12H82.1755V3.52H86.1115C87.1142 3.52 87.8982 3.712 88.4635 4.096C89.0288 4.46933 89.3115 5.00267 89.3115 5.696C89.3115 6.144 89.1888 6.53333 88.9435 6.864C88.7088 7.184 88.3782 7.42933 87.9515 7.6ZM83.6795 7.168H85.9835C86.5702 7.168 87.0128 7.06133 87.3115 6.848C87.6208 6.63467 87.7755 6.32533 87.7755 5.92C87.7755 5.10933 87.1782 4.704 85.9835 4.704H83.6795V7.168ZM86.1435 10.816C86.7835 10.816 87.2635 10.7147 87.5835 10.512C87.9035 10.3093 88.0635 9.99467 88.0635 9.568C88.0635 9.13067 87.9142 8.80533 87.6155 8.592C87.3275 8.37867 86.8688 8.272 86.2395 8.272H83.6795V10.816H86.1435ZM95.6356 12.096C94.793 12.096 94.0356 11.9093 93.3636 11.536C92.6916 11.1627 92.1636 10.6507 91.7796 10C91.4063 9.33867 91.2196 8.592 91.2196 7.76C91.2196 6.928 91.4063 6.18667 91.7796 5.536C92.1636 4.87467 92.6916 4.36267 93.3636 4C94.0356 3.62667 94.793 3.44 95.6356 3.44C96.4783 3.44 97.2303 3.62667 97.8916 4C98.5636 4.36267 99.0863 4.87467 99.4596 5.536C99.8436 6.18667 100.036 6.928 100.036 7.76C100.036 8.592 99.8436 9.33867 99.4596 10C99.0863 10.6507 98.5636 11.1627 97.8916 11.536C97.2303 11.9093 96.4783 12.096 95.6356 12.096ZM95.6356 10.752C96.1796 10.752 96.665 10.6293 97.0916 10.384C97.529 10.128 97.8703 9.776 98.1156 9.328C98.361 8.86933 98.4836 8.34667 98.4836 7.76C98.4836 7.17333 98.361 6.656 98.1156 6.208C97.8703 5.74933 97.529 5.39733 97.0916 5.152C96.665 4.90667 96.1796 4.784 95.6356 4.784C95.0916 4.784 94.601 4.90667 94.1636 5.152C93.737 5.39733 93.3956 5.74933 93.1396 6.208C92.8943 6.656 92.7716 7.17333 92.7716 7.76C92.7716 8.34667 92.8943 8.86933 93.1396 9.328C93.3956 9.776 93.737 10.128 94.1636 10.384C94.601 10.6293 95.0916 10.752 95.6356 10.752ZM102.254 3.52H103.79V9.696L108.99 3.52H110.382V12H108.846V5.824L103.662 12H102.254V3.52ZM106.222 2.416C105.432 2.416 104.819 2.22933 104.382 1.856C103.944 1.472 103.72 0.922666 103.71 0.207999H104.75C104.76 0.602666 104.894 0.922666 105.15 1.168C105.416 1.40267 105.768 1.52 106.206 1.52C106.643 1.52 106.995 1.40267 107.262 1.168C107.528 0.922666 107.667 0.602666 107.678 0.207999H108.75C108.739 0.922666 108.51 1.472 108.062 1.856C107.614 2.22933 107 2.416 106.222 2.416Z" fill="#272525"/>
</svg>
